<?xml version="1.0" encoding="utf-8"?>
<!-- Generator: Adobe Illustrator 27.5.0, SVG Export Plug-In . SVG Version: 6.00 Build 0)  -->
<svg version="1.1" xmlns="http://www.w3.org/2000/svg" xmlns:xlink="http://www.w3.org/1999/xlink" x="0px" y="0px"
	 viewBox="0 0 500 500" style="enable-background:new 0 0 500 500;" xml:space="preserve">
<g id="BACKGROUND">
	<rect style="fill:#A6C7DD;" width="500" height="500"/>
</g>
<g id="OBJECTS">
	<g>
		<g>
			<g>
				<polygon style="fill:#689DCF;" points="500,245.319 395.587,131.875 264.748,274.03 395.587,274.064 500,274.037 				"/>
				<polygon style="fill:#4485BC;" points="395.587,131.875 395.587,274.064 500,274.037 500,245.319 				"/>
			</g>
			<g>
				<polygon style="fill:#4485BC;" points="0.533,245.319 104.946,131.875 235.785,274.03 104.946,274.064 0.533,274.037 				"/>
				<polygon style="fill:#689DCF;" points="104.946,131.875 104.946,274.064 0.533,274.037 0.533,245.319 				"/>
			</g>
			<g>
				<polygon style="fill:#689DCF;" points="250,47.713 84.144,273.953 250,273.953 415.856,273.953 				"/>
				<polygon style="fill:#4485BC;" points="250,47.713 250,273.953 415.856,273.953 				"/>
				<polygon style="fill:#FCFEFD;" points="289.064,101 250,47.713 210.936,101 				"/>
				<polygon style="fill:#E6E8E7;" points="289.064,101 250,47.713 250,101 				"/>
			</g>
		</g>
		<polygon style="fill:#FCFEFD;" points="420.936,159.417 395.587,131.875 370.237,159.417 		"/>
		<polygon style="fill:#E6E8E7;" points="420.936,159.417 395.587,131.875 395.587,159.417 		"/>
		<polygon style="fill:#FCFEFD;" points="130.296,159.417 104.946,131.875 79.597,159.417 		"/>
		<polygon style="fill:#E6E8E7;" points="104.946,159.417 104.946,131.875 79.597,159.417 		"/>
		<g style="opacity:0.56;">
			<g>
				<path style="fill:#FCFEFD;" d="M432.287,63.792L432.287,63.792c0-2.462-1.996-4.458-4.458-4.458H314.61
					c-2.462,0-4.458,1.996-4.458,4.458v0c0,2.462,1.996,4.458,4.458,4.458h12.429c2.347,0,4.25,1.903,4.25,4.25l0,0
					c0,2.347-1.903,4.25-4.25,4.25H290.95c-2.462,0-4.458,1.996-4.458,4.458l0,0c0,2.462,1.996,4.458,4.458,4.458h132.046
					c2.462,0,4.458-1.996,4.458-4.458l0,0c0-2.462-1.996-4.458-4.458-4.458h-23.078c-2.347,0-4.25-1.903-4.25-4.25l0,0
					c0-2.347,1.903-4.25,4.25-4.25h27.911C430.291,68.25,432.287,66.254,432.287,63.792z"/>
				<path style="fill:#FCFEFD;" d="M67.713,63.792L67.713,63.792c0-2.462,1.996-4.458,4.458-4.458H185.39
					c2.462,0,4.458,1.996,4.458,4.458v0c0,2.462-1.996,4.458-4.458,4.458h-12.429c-2.347,0-4.25,1.903-4.25,4.25l0,0
					c0,2.347,1.903,4.25,4.25,4.25h36.089c2.462,0,4.458,1.996,4.458,4.458l0,0c0,2.462-1.996,4.458-4.458,4.458H77.005
					c-2.462,0-4.458-1.996-4.458-4.458l0,0c0-2.462,1.996-4.458,4.458-4.458h23.078c2.347,0,4.25-1.903,4.25-4.25l0,0
					c0-2.347-1.903-4.25-4.25-4.25H72.172C69.709,68.25,67.713,66.254,67.713,63.792z"/>
			</g>
		</g>
		<g>
			<g>
				<g>
					<g>
						<rect x="352.081" y="248.785" style="fill:#14567A;" width="6.416" height="15.788"/>
						<rect x="352.081" y="248.785" style="fill:#25648E;" width="3.224" height="15.788"/>
					</g>
				</g>
				<g>
					<polygon style="fill:#14567A;" points="355.289,195.623 376.953,252.393 355.289,252.393 					"/>
					<polygon style="fill:#25648E;" points="355.289,195.623 333.624,252.393 355.289,252.393 					"/>
				</g>
			</g>
			<g>
				<g>
					<g>
						<rect x="144.503" y="248.785" style="fill:#14567A;" width="3.416" height="15.788"/>
						<rect x="141.503" y="248.785" style="fill:#25648E;" width="3.224" height="15.788"/>
					</g>
				</g>
				<g>
					<polygon style="fill:#14567A;" points="144.711,195.623 166.376,252.393 144.711,252.393 					"/>
					<polygon style="fill:#25648E;" points="144.711,195.623 123.046,252.393 144.711,252.393 					"/>
				</g>
			</g>
		</g>
		<g>
			<circle style="fill:#A4C8E0;" cx="320.759" cy="225.136" r="26.171"/>
			<path style="fill:#FCFEFD;" d="M332.115,227.882l-10.51,9.356V227.9l11.635-10.358c0.349-0.311,0.38-0.845,0.069-1.194
				c-0.311-0.35-0.848-0.38-1.194-0.069l-10.51,9.356v-11.053c0-0.467-0.378-0.846-0.846-0.846c-0.468,0-0.846,0.379-0.846,0.846
				v11.053l-10.509-9.356c-0.348-0.31-0.884-0.28-1.194,0.069c-0.311,0.349-0.279,0.884,0.069,1.194l11.634,10.358v9.115
				l-10.509-9.356c-0.348-0.309-0.884-0.28-1.194,0.069c-0.311,0.349-0.279,0.884,0.069,1.194l11.634,10.358v27.114
				c0,0.467,0.378,0.846,0.846,0.846c0.467,0,0.846-0.378,0.846-0.846v-26.891l11.635-10.358c0.349-0.311,0.38-0.845,0.069-1.194
				C332.998,227.602,332.461,227.572,332.115,227.882z"/>
		</g>
		<g>
			<circle style="fill:#A4C8E0;" cx="178.624" cy="225.136" r="26.171"/>
			<path style="fill:#FCFEFD;" d="M189.98,227.882l-10.51,9.356V227.9l11.635-10.358c0.348-0.311,0.38-0.845,0.069-1.194
				c-0.311-0.35-0.847-0.38-1.194-0.069l-10.51,9.356v-11.053c0-0.467-0.378-0.846-0.846-0.846c-0.468,0-0.846,0.379-0.846,0.846
				v11.053l-10.509-9.356c-0.348-0.31-0.884-0.28-1.194,0.069c-0.311,0.349-0.279,0.884,0.069,1.194l11.634,10.358v9.115
				l-10.509-9.356c-0.348-0.309-0.884-0.28-1.194,0.069c-0.311,0.349-0.279,0.884,0.069,1.194l11.634,10.358v27.114
				c0,0.467,0.378,0.846,0.846,0.846c0.467,0,0.846-0.378,0.846-0.846v-26.891l11.635-10.358c0.348-0.311,0.38-0.845,0.069-1.194
				C190.863,227.602,190.326,227.572,189.98,227.882z"/>
		</g>
		<g>
			<g>
				<rect x="246.075" y="243.013" style="fill:#14567A;" width="8.382" height="24.227"/>
				<rect x="246.075" y="243.013" style="fill:#25648E;" width="4.212" height="24.227"/>
			</g>
			<g>
				<polygon style="fill:#14567A;" points="250.266,156.25 285.727,252.158 250.266,252.158 				"/>
				<polygon style="fill:#25648E;" points="250.266,156.25 214.805,252.158 250.266,252.158 				"/>
			</g>
		</g>
		<g>
			<g>
				<rect x="409.328" y="239.423" style="fill:#074560;" width="7.588" height="20.092"/>
				<rect x="409.328" y="239.423" style="fill:#14567A;" width="3.813" height="20.092"/>
			</g>
			<g>
				<polygon style="fill:#074560;" points="413.122,171.833 445.222,247.701 413.122,247.701 				"/>
				<polygon style="fill:#14567A;" points="413.122,171.833 381.021,247.701 413.122,247.701 				"/>
			</g>
		</g>
		<g>
			<g>
				<rect x="83.084" y="239.423" style="fill:#074560;" width="7.588" height="20.092"/>
				<rect x="83.084" y="239.423" style="fill:#14567A;" width="3.813" height="20.092"/>
			</g>
			<g>
				<polygon style="fill:#074560;" points="86.878,171.833 118.979,247.701 86.878,247.701 				"/>
				<polygon style="fill:#14567A;" points="86.878,171.833 54.778,247.701 86.878,247.701 				"/>
			</g>
		</g>
		<path style="fill:#FCFEFD;" d="M250,266.385c-88.921,0-173.486-7.133-250-19.981v131.064h500V246.404
			C423.486,259.252,338.921,266.385,250,266.385z"/>
		<path style="fill:#DDEBF2;" d="M0,303.459c0,0,186.932,15.91,348.06,111.446H0V303.459z"/>
		<path style="fill:#D1E0E8;" d="M500,303.459c0,0-186.932,15.91-348.06,111.446H500V303.459z"/>
		<g>
			<g>
				<g>
					<g>
						<rect x="436.657" y="349.198" style="fill:#14567A;" width="9.328" height="22.955"/>
						<rect x="436.657" y="349.198" style="fill:#25648E;" width="4.688" height="22.955"/>
					</g>
				</g>
				<g>
					<polygon style="fill:#14567A;" points="441.321,271.904 472.819,354.443 441.321,354.443 					"/>
					<polygon style="fill:#25648E;" points="441.321,271.904 409.822,354.443 441.321,354.443 					"/>
				</g>
			</g>
			<g>
				<g>
					<g>
						<rect x="54.015" y="349.198" style="fill:#14567A;" width="9.328" height="22.955"/>
						<rect x="54.015" y="349.198" style="fill:#25648E;" width="4.688" height="22.955"/>
					</g>
				</g>
				<g>
					<polygon style="fill:#14567A;" points="58.679,271.904 90.178,354.443 58.679,354.443 					"/>
					<polygon style="fill:#25648E;" points="58.679,271.904 27.181,354.443 58.679,354.443 					"/>
				</g>
			</g>
		</g>
		<path style="fill:#FCFEFD;" d="M250,379.551c-88.921,0-173.486-7.764-250-21.749V500.46h500V357.802
			C423.486,371.787,338.921,379.551,250,379.551z"/>
		<g>
			<g>
				<g>
					<rect x="327.564" y="410.986" style="fill:#074560;" width="10.845" height="34.02"/>
					<rect x="327.564" y="410.986" style="fill:#14567A;" width="5.45" height="34.02"/>
				</g>
				<g>
					<polygon style="fill:#074560;" points="332.987,300.095 378.864,422.816 332.987,422.816 					"/>
					<polygon style="fill:#14567A;" points="332.987,300.095 287.109,422.816 332.987,422.816 					"/>
				</g>
			</g>
			<g>
				<g>
					
						<rect x="161.591" y="410.986" transform="matrix(-1 -1.224647e-16 1.224647e-16 -1 334.0265 855.9913)" style="fill:#14567A;" width="10.844" height="34.02"/>
					
						<rect x="166.986" y="410.986" transform="matrix(-1 -1.224647e-16 1.224647e-16 -1 339.4212 855.9913)" style="fill:#074560;" width="5.45" height="34.02"/>
				</g>
				<g>
					<polygon style="fill:#14567A;" points="167.013,300.095 121.136,422.816 167.013,422.816 					"/>
					<polygon style="fill:#074560;" points="167.013,300.095 212.891,422.816 167.013,422.816 					"/>
				</g>
			</g>
		</g>
		<path style="opacity:0.56;fill:#FCFEFD;" d="M309.77,36H190.23c-2.485,0-4.5-2.015-4.5-4.5l0,0c0-2.485,2.015-4.5,4.5-4.5h119.54
			c2.485,0,4.5,2.015,4.5,4.5l0,0C314.27,33.985,312.255,36,309.77,36z"/>
		<g>
			<g>
				<circle style="fill:#FCFEFD;" cx="56.621" cy="25" r="2.75"/>
				<circle style="fill:#FCFEFD;" cx="142.371" cy="25" r="2.75"/>
				<circle style="fill:#FCFEFD;" cx="215.371" cy="56.583" r="2.75"/>
				<circle style="fill:#FCFEFD;" cx="125.401" cy="112.753" r="2.75"/>
				<circle style="fill:#FCFEFD;" cx="169.163" cy="112.753" r="2.75"/>
				<circle style="fill:#FCFEFD;" cx="147.871" cy="140.25" r="2.75"/>
				<circle style="fill:#FCFEFD;" cx="54.691" cy="149.833" r="2.75"/>
				<circle style="fill:#FCFEFD;" cx="99.818" cy="36" r="2.75"/>
			</g>
			<circle style="fill:#FCFEFD;" cx="439.198" cy="25" r="2.75"/>
			<circle style="fill:#FCFEFD;" cx="353.448" cy="25" r="2.75"/>
			<circle style="fill:#FCFEFD;" cx="284.629" cy="56.583" r="2.75"/>
			<circle style="fill:#FCFEFD;" cx="370.418" cy="112.753" r="2.75"/>
			<g>
				<circle style="fill:#FCFEFD;" cx="466.889" cy="72.5" r="2.75"/>
				<circle style="fill:#FCFEFD;" cx="24.749" cy="72.5" r="2.75"/>
			</g>
			<g>
				<circle style="fill:#FCFEFD;" cx="416.755" cy="112.753" r="2.75"/>
				<circle style="fill:#FCFEFD;" cx="468.638" cy="112.753" r="2.75"/>
				<circle style="fill:#FCFEFD;" cx="26.499" cy="112.753" r="2.75"/>
				<circle style="fill:#FCFEFD;" cx="78.382" cy="112.753" r="2.75"/>
			</g>
			<circle style="fill:#FCFEFD;" cx="326.656" cy="112.753" r="2.75"/>
			<circle style="fill:#FCFEFD;" cx="347.948" cy="140.25" r="2.75"/>
			<circle style="fill:#FCFEFD;" cx="441.128" cy="149.833" r="2.75"/>
			<circle style="fill:#FCFEFD;" cx="396.001" cy="36" r="2.75"/>
		</g>
		<g>
			<circle style="fill:#A6C7DD;" cx="250.238" cy="310.153" r="35.769"/>
			<path style="fill:#D1E0E8;" d="M265.758,313.906l-14.365,12.788v-12.762l15.902-14.157c0.476-0.424,0.519-1.155,0.095-1.632
				c-0.424-0.478-1.158-0.519-1.632-0.095l-14.365,12.788v-15.107c0-0.638-0.517-1.156-1.156-1.156
				c-0.639,0-1.156,0.517-1.156,1.156v15.107l-14.364-12.788c-0.475-0.424-1.208-0.382-1.632,0.095
				c-0.424,0.477-0.382,1.208,0.095,1.632l15.901,14.157v12.457l-14.364-12.788c-0.475-0.423-1.208-0.383-1.632,0.095
				c-0.424,0.477-0.382,1.208,0.095,1.632l15.901,14.157v37.058c0,0.639,0.517,1.156,1.156,1.156c0.639,0,1.156-0.517,1.156-1.156
				v-36.753l15.902-14.157c0.476-0.424,0.519-1.155,0.095-1.632C266.966,313.523,266.233,313.482,265.758,313.906z"/>
		</g>
		<g>
			<g>
				
					<ellipse transform="matrix(0.7071 -0.7071 0.7071 0.7071 -90.4708 354.2433)" style="fill:#A6C7DD;" cx="382.374" cy="286.33" rx="27.081" ry="27.081"/>
				<path style="fill:#D1E0E8;" d="M394.124,289.171l-10.875,9.682v-9.662l12.039-10.718c0.361-0.321,0.393-0.875,0.072-1.236
					c-0.321-0.362-0.877-0.393-1.236-0.072l-10.875,9.682v-11.437c0-0.483-0.391-0.875-0.875-0.875
					c-0.484,0-0.875,0.392-0.875,0.875v11.437l-10.875-9.682c-0.36-0.321-0.914-0.289-1.236,0.072
					c-0.321,0.361-0.289,0.914,0.072,1.236l12.039,10.718v9.431l-10.875-9.682c-0.36-0.32-0.914-0.29-1.236,0.072
					c-0.321,0.361-0.289,0.914,0.072,1.236l12.039,10.718v28.056c0,0.484,0.391,0.875,0.875,0.875c0.484,0,0.875-0.391,0.875-0.875
					v-27.826l12.039-10.718c0.361-0.321,0.393-0.875,0.072-1.236C395.039,288.881,394.483,288.85,394.124,289.171z"/>
			</g>
			<g>
				
					<ellipse transform="matrix(0.9867 -0.1628 0.1628 0.9867 -44.9686 23.7813)" style="fill:#A6C7DD;" cx="122.651" cy="286.33" rx="27.081" ry="27.081"/>
				<path style="fill:#D1E0E8;" d="M134.401,289.171l-10.875,9.682v-9.662l12.039-10.718c0.361-0.321,0.393-0.875,0.072-1.236
					c-0.321-0.362-0.877-0.393-1.236-0.072l-10.875,9.682v-11.437c0-0.483-0.391-0.875-0.875-0.875
					c-0.484,0-0.875,0.392-0.875,0.875v11.437l-10.875-9.682c-0.36-0.321-0.914-0.289-1.236,0.072
					c-0.321,0.361-0.289,0.914,0.072,1.236l12.039,10.718v9.431L110.9,288.94c-0.36-0.32-0.914-0.29-1.236,0.072
					c-0.321,0.361-0.289,0.914,0.072,1.236l12.039,10.718v28.056c0,0.484,0.391,0.875,0.875,0.875c0.484,0,0.875-0.391,0.875-0.875
					v-27.826l12.039-10.718c0.361-0.321,0.393-0.875,0.072-1.236C135.315,288.881,134.76,288.85,134.401,289.171z"/>
			</g>
		</g>
		<path style="fill:#A6C7DD;" d="M500,454.531c-72.789-9.126-158.392-14.388-250-14.388S72.789,445.405,0,454.531v45.929h500
			V454.531z"/>
		<g>
			<path style="fill:#4485BC;" d="M401.241,500.46H500v-44.152c0-14.52-11.77-26.29-26.29-26.29
				c-13.845,0-25.181,10.704-26.206,24.286c-0.024,0-0.047-0.002-0.071-0.002c-10.172,0-18.857,6.348-22.322,15.297
				c-3.679-4.616-9.339-7.582-15.7-7.582c-11.089,0-20.079,8.99-20.079,20.079C389.332,490.273,394.228,497.338,401.241,500.46z"/>
		</g>
		<g>
			<g>
				<g>
					<path style="fill:#689DCF;" d="M453.187,407.575H500v-20.929c0-6.882-5.579-12.462-12.462-12.462
						c-6.563,0-11.936,5.074-12.422,11.512c-0.011,0-0.022-0.001-0.034-0.001c-4.822,0-8.938,3.009-10.581,7.251
						c-1.744-2.188-4.427-3.594-7.442-3.594c-5.257,0-9.518,4.261-9.518,9.518C447.542,402.746,449.863,406.095,453.187,407.575z"/>
				</g>
			</g>
			<g>
				<g>
					<path style="fill:#689DCF;" d="M46.813,407.575H0v-20.929c0-6.882,5.579-12.462,12.462-12.462
						c6.563,0,11.936,5.074,12.422,11.512c0.011,0,0.022-0.001,0.034-0.001c4.822,0,8.938,3.009,10.581,7.251
						c1.744-2.188,4.427-3.594,7.442-3.594c5.257,0,9.518,4.261,9.518,9.518C52.458,402.746,50.137,406.095,46.813,407.575z"/>
				</g>
			</g>
		</g>
		<g>
			<path style="fill:#4485BC;" d="M98.759,500.46H0v-44.152c0-14.52,11.77-26.29,26.29-26.29c13.845,0,25.181,10.704,26.206,24.286
				c0.024,0,0.047-0.002,0.071-0.002c10.172,0,18.856,6.348,22.322,15.297c3.679-4.616,9.339-7.582,15.7-7.582
				c11.089,0,20.079,8.99,20.079,20.079C110.668,490.273,105.772,497.338,98.759,500.46z"/>
		</g>
	</g>
</g>
<g id="DESIGNED_BY_FREEPIK">
	<g>
		<g>
			<g id="XMLID_225_">
				<g id="XMLID_244_">
					<path id="XMLID_252_" style="fill:#FCFEFD;" d="M260.104,473.509c-0.432,0.443-0.803,0.931-1.108,1.453l-0.465-0.241
						c-0.067-0.298-0.349-0.503-0.659-0.466c-0.331,0.039-0.568,0.339-0.529,0.67c0.039,0.331,0.339,0.568,0.67,0.529
						c0.066-0.008,0.127-0.026,0.184-0.052l0.451,0.234c-0.251,0.554-0.433,1.139-0.539,1.744l0.747,0.132
						c0.23-1.306,0.85-2.507,1.792-3.473L260.104,473.509z"/>
					<path id="XMLID_251_" style="fill:#FCFEFD;" d="M265.592,471.207c-0.171,0-0.341,0.006-0.51,0.017l-0.074-0.626
						c0.188-0.149,0.296-0.389,0.266-0.645c-0.046-0.393-0.402-0.674-0.795-0.628c-0.393,0.046-0.674,0.402-0.628,0.795
						c0.03,0.254,0.189,0.461,0.404,0.564l0.074,0.624c-0.714,0.116-1.403,0.332-2.06,0.646l0.327,0.684
						c0.934-0.447,1.942-0.673,2.995-0.673c0.496,0,0.993,0.053,1.475,0.158l0.161-0.741
						C266.692,471.266,266.142,471.207,265.592,471.207z"/>
					<path id="XMLID_250_" style="fill:#FCFEFD;" d="M272.194,473.754c0.331-0.04,0.566-0.341,0.526-0.672
						c-0.04-0.331-0.341-0.566-0.672-0.526c-0.309,0.038-0.535,0.304-0.53,0.609l-0.416,0.363c-0.418-0.43-0.889-0.813-1.408-1.139
						l-0.404,0.641c1.134,0.715,2.021,1.726,2.563,2.925l0.69-0.313c-0.251-0.554-0.567-1.072-0.942-1.545l0.402-0.351
						C272.065,473.759,272.129,473.762,272.194,473.754z"/>
					<path id="XMLID_249_" style="fill:#FCFEFD;" d="M265.044,481.415c-0.386,0.023-0.775,0.035-1.157,0.035
						c-0.88,0-1.733-0.061-2.478-0.179c-0.39-0.062-0.846-0.155-1.27-0.292c1.046,1.861,3.069,3.125,5.388,3.125
						c2.855,0,5.262-1.916,5.95-4.504c-0.682,0.449-1.505,0.825-2.459,1.123C267.839,481.091,266.463,481.33,265.044,481.415z"/>
					<path id="XMLID_245_" style="fill:#FCFEFD;" d="M265.592,472.723c-3.352,0-6.08,2.666-6.08,5.943
						c0,0.426,0.046,0.849,0.137,1.261c0.673,0.483,2.706,0.89,5.348,0.731c2.879-0.173,5.297-0.957,6.672-2.159
						c-0.006-0.195-0.021-0.39-0.045-0.582C271.244,474.957,268.65,472.723,265.592,472.723z M263.432,479.238
						c-1.02,0-1.85-0.83-1.85-1.85c0-1.02,0.83-1.85,1.85-1.85c1.02,0,1.85,0.83,1.85,1.85
						C265.282,478.408,264.452,479.238,263.432,479.238z M268.17,478.33c-0.75,0-1.36-0.61-1.36-1.36s0.61-1.361,1.36-1.361
						c0.75,0,1.361,0.61,1.361,1.361S268.92,478.33,268.17,478.33z"/>
				</g>
				<path id="XMLID_242_" style="fill:#FCFEFD;" d="M281.595,474.59c-0.295-0.116-0.805-0.309-1.382-0.237
					c-0.551,0.069-0.844,0.341-0.844,1.007v0.866h2.228v1.717h-2.228v5.455h-1.932v-5.455h-1.34v-1.717h1.34v-0.888
					c0-1.68,0.896-2.783,2.568-2.783c0.643,0,1.157,0.122,1.59,0.308L281.595,474.59z"/>
				<path id="XMLID_240_" style="fill:#FCFEFD;" d="M286.298,477.922c-0.177-0.03-0.358-0.046-0.526-0.046
					c-0.896,0-1.51,0.548-1.51,1.613v3.908h-1.932v-7.172h1.873v0.785c0.451-0.673,1.14-0.977,2.021-0.977
					c0.414,0,0.848,0.128,1.094,0.337L286.298,477.922z"/>
				<path id="XMLID_237_" style="fill:#FCFEFD;" d="M293.965,479.801c0,0.222-0.015,0.489-0.037,0.651h-5.085
					c0.207,1.036,0.933,1.488,1.843,1.488c0.622,0,1.295-0.252,1.813-0.688l1.133,1.243c-0.814,0.748-1.85,1.088-3.057,1.088
					c-2.198,0-3.723-1.495-3.723-3.753c0-2.258,1.48-3.797,3.627-3.797C292.544,476.033,293.958,477.565,293.965,479.801z
					 M288.851,479.134h3.175c-0.177-0.918-0.733-1.436-1.562-1.436C289.554,477.698,289.021,478.246,288.851,479.134z"/>
				<path id="XMLID_234_" style="fill:#FCFEFD;" d="M301.618,479.801c0,0.222-0.015,0.489-0.037,0.651h-5.085
					c0.207,1.036,0.933,1.488,1.843,1.488c0.622,0,1.295-0.252,1.814-0.688l1.132,1.243c-0.814,0.748-1.85,1.088-3.057,1.088
					c-2.198,0-3.723-1.495-3.723-3.753c0-2.258,1.48-3.797,3.627-3.797C300.197,476.033,301.611,477.565,301.618,479.801z
					 M296.504,479.134h3.175c-0.178-0.918-0.733-1.436-1.562-1.436C297.207,477.698,296.674,478.246,296.504,479.134z"/>
				<path id="XMLID_231_" style="fill:#FCFEFD;" d="M309.964,479.808c0,2.154-1.495,3.775-3.471,3.775
					c-0.962,0-1.643-0.378-2.109-0.933v3.708h-1.924v-10.133h1.887v0.792c0.466-0.585,1.155-0.984,2.139-0.984
					C308.469,476.033,309.964,477.654,309.964,479.808z M304.287,479.808c0,1.132,0.748,1.976,1.843,1.976
					c1.14,0,1.85-0.881,1.85-1.976c0-1.095-0.71-1.976-1.85-1.976C305.035,477.832,304.287,478.676,304.287,479.808z"/>
				<path id="XMLID_228_" style="fill:#FCFEFD;" d="M313.068,473.879c0,0.696-0.54,1.229-1.236,1.229
					c-0.696,0-1.229-0.533-1.229-1.229c0-0.696,0.533-1.243,1.229-1.243C312.527,472.636,313.068,473.184,313.068,473.879z
					 M312.809,483.398h-1.932v-7.172h1.932V483.398z"/>
				<path id="XMLID_226_" style="fill:#FCFEFD;" d="M316.032,478.779l2.701-2.554h2.368l-3.479,3.375l3.501,3.797h-2.376
					l-2.716-2.901v2.901H314.1V472.74h1.932V478.779z"/>
			</g>
			<g>
				<path style="fill:#FCFEFD;" d="M184.412,483.333v-1.055c-0.527,0.718-1.391,1.23-2.387,1.23c-1.846,0-3.149-1.406-3.149-3.706
					c0-2.256,1.289-3.721,3.149-3.721c0.952,0,1.816,0.469,2.387,1.245v-3.765h1.099v9.77H184.412z M184.412,481.414v-3.208
					c-0.395-0.615-1.245-1.143-2.124-1.143c-1.421,0-2.27,1.172-2.27,2.739c0,1.567,0.85,2.724,2.27,2.724
					C183.168,482.527,184.017,482.029,184.412,481.414z"/>
				<path style="fill:#FCFEFD;" d="M186.932,479.788c0-2.051,1.465-3.706,3.486-3.706c2.139,0,3.398,1.67,3.398,3.794v0.279h-5.727
					c0.088,1.333,1.025,2.446,2.549,2.446c0.805,0,1.626-0.322,2.182-0.894l0.527,0.718c-0.703,0.703-1.655,1.084-2.812,1.084
					C188.44,483.508,186.932,482,186.932,479.788z M190.403,476.99c-1.509,0-2.256,1.274-2.314,2.358h4.643
					C192.718,478.294,192.015,476.99,190.403,476.99z"/>
				<path style="fill:#FCFEFD;" d="M194.607,482.395l0.571-0.791c0.469,0.542,1.362,1.011,2.329,1.011
					c1.084,0,1.67-0.513,1.67-1.216c0-1.714-4.38-0.659-4.38-3.281c0-1.098,0.952-2.036,2.636-2.036
					c1.201,0,2.051,0.454,2.622,1.026l-0.513,0.762c-0.424-0.513-1.201-0.894-2.109-0.894c-0.967,0-1.567,0.483-1.567,1.113
					c0,1.552,4.38,0.527,4.38,3.281c0,1.187-0.952,2.138-2.783,2.138C196.306,483.508,195.325,483.157,194.607,482.395z"/>
				<path style="fill:#FCFEFD;" d="M201.477,474.515c0-0.41,0.337-0.747,0.732-0.747c0.41,0,0.747,0.337,0.747,0.747
					c0,0.41-0.337,0.732-0.747,0.732C201.814,475.247,201.477,474.925,201.477,474.515z M201.667,483.333v-7.075h1.099v7.075
					H201.667z"/>
				<path style="fill:#FCFEFD;" d="M204.582,485.149l0.556-0.82c0.586,0.703,1.289,0.967,2.3,0.967c1.172,0,2.27-0.571,2.27-2.124
					v-1.011c-0.513,0.718-1.377,1.26-2.373,1.26c-1.845,0-3.149-1.377-3.149-3.662c0-2.27,1.289-3.677,3.149-3.677
					c0.952,0,1.802,0.469,2.373,1.245v-1.069h1.098v6.87c0,2.344-1.641,3.076-3.369,3.076
					C206.237,486.204,205.417,485.969,204.582,485.149z M209.709,481.297v-3.091c-0.381-0.615-1.23-1.143-2.109-1.143
					c-1.421,0-2.27,1.128-2.27,2.695c0,1.553,0.849,2.695,2.27,2.695C208.478,482.454,209.328,481.912,209.709,481.297z"/>
				<path style="fill:#FCFEFD;" d="M217.413,483.333v-4.629c0-1.245-0.63-1.641-1.582-1.641c-0.865,0-1.685,0.527-2.095,1.099v5.17
					h-1.099v-7.075h1.099v1.025c0.498-0.586,1.464-1.201,2.519-1.201c1.48,0,2.256,0.747,2.256,2.285v4.966H217.413z"/>
				<path style="fill:#FCFEFD;" d="M219.932,479.788c0-2.051,1.465-3.706,3.486-3.706c2.139,0,3.398,1.67,3.398,3.794v0.279h-5.727
					c0.088,1.333,1.025,2.446,2.549,2.446c0.806,0,1.626-0.322,2.183-0.894l0.527,0.718c-0.703,0.703-1.655,1.084-2.812,1.084
					C221.441,483.508,219.932,482,219.932,479.788z M223.404,476.99c-1.509,0-2.256,1.274-2.314,2.358h4.643
					C225.718,478.294,225.015,476.99,223.404,476.99z"/>
				<path style="fill:#FCFEFD;" d="M233.35,483.333v-1.055c-0.527,0.718-1.392,1.23-2.388,1.23c-1.846,0-3.149-1.406-3.149-3.706
					c0-2.256,1.289-3.721,3.149-3.721c0.952,0,1.817,0.469,2.388,1.245v-3.765h1.098v9.77H233.35z M233.35,481.414v-3.208
					c-0.396-0.615-1.245-1.143-2.124-1.143c-1.421,0-2.27,1.172-2.27,2.739c0,1.567,0.849,2.724,2.27,2.724
					C232.105,482.527,232.954,482.029,233.35,481.414z"/>
				<path style="fill:#FCFEFD;" d="M239.692,483.333v-9.77h1.098v3.765c0.572-0.776,1.421-1.245,2.388-1.245
					c1.845,0,3.149,1.465,3.149,3.721c0,2.299-1.304,3.706-3.149,3.706c-0.996,0-1.86-0.513-2.388-1.23v1.055H239.692z
					 M242.9,482.527c1.436,0,2.285-1.157,2.285-2.724c0-1.568-0.85-2.739-2.285-2.739c-0.864,0-1.728,0.527-2.109,1.143v3.208
					C241.171,482.029,242.036,482.527,242.9,482.527z"/>
				<path style="fill:#FCFEFD;" d="M247.528,485.105c0.161,0.073,0.425,0.117,0.601,0.117c0.483,0,0.805-0.161,1.055-0.747
					l0.469-1.069l-2.959-7.148h1.187l2.358,5.8l2.344-5.8h1.201l-3.545,8.51c-0.425,1.025-1.143,1.421-2.08,1.435
					c-0.234,0-0.601-0.044-0.805-0.103L247.528,485.105z"/>
			</g>
		</g>
	</g>
</g>
</svg>
