<?xml version="1.0" encoding="utf-8"?>
<!-- Generator: Adobe Illustrator 27.5.0, SVG Export Plug-In . SVG Version: 6.00 Build 0)  -->
<svg version="1.1" xmlns="http://www.w3.org/2000/svg" xmlns:xlink="http://www.w3.org/1999/xlink" x="0px" y="0px"
	 viewBox="0 0 750 500" style="enable-background:new 0 0 750 500;" xml:space="preserve">
<g id="BACKGROUND">
	<rect y="-0.407" style="fill:#B7E7FE;" width="750.924" height="470.436"/>
	<g>
		<rect y="166.808" style="opacity:0.22;fill:#FFFFFF;" width="497.176" height="1.21"/>
		<rect x="253.456" y="82.394" style="opacity:0.22;fill:#FFFFFF;" width="497.176" height="1.21"/>
		<rect x="-2.941" y="37.576" style="opacity:0.22;fill:#FFFFFF;" width="203.766" height="0.496"/>
	</g>
	<g>
		<path style="opacity:0.86;fill:#FFFFFF;" d="M335.959,172.086c0.467-2.363,0.723-4.801,0.723-7.3
			c0-20.676-16.762-37.437-37.438-37.437c-8.478,0-16.271,2.851-22.547,7.602c-9.661-12.789-24.99-21.058-42.253-21.058
			c-29.23,0-52.925,23.695-52.925,52.925c0,1.733,0.089,3.445,0.252,5.135h-4.063c-15.291,0-27.801,12.511-27.801,27.801v0
			c0,15.291,12.51,27.801,27.801,27.801h155.642c15.291,0,27.801-12.51,27.801-27.801v0
			C361.152,185.344,350.038,173.413,335.959,172.086z"/>
		<path style="opacity:0.86;fill:#FFFFFF;" d="M525.548,136.901c-0.294-1.489-0.456-3.025-0.456-4.6
			c0-13.028,10.562-23.59,23.59-23.59c5.342,0,10.253,1.797,14.207,4.79c6.088-8.059,15.746-13.269,26.624-13.269
			c18.418,0,33.349,14.931,33.349,33.349c0,1.092-0.056,2.171-0.159,3.236h2.56c9.635,0,17.518,7.883,17.518,17.518v0
			c0,9.635-7.883,17.518-17.518,17.518h-98.073c-9.635,0-17.518-7.883-17.518-17.518v0
			C509.673,145.254,516.677,137.737,525.548,136.901z"/>
		<path style="opacity:0.86;fill:#FFFFFF;" d="M515.873,70.843c0.175-0.886,0.271-1.8,0.271-2.737
			c0-7.752-6.284-14.036-14.037-14.036c-3.178,0-6.1,1.069-8.453,2.85c-3.622-4.795-9.369-7.895-15.842-7.895
			c-10.959,0-19.843,8.884-19.843,19.843c0,0.65,0.034,1.292,0.095,1.925h-1.523c-5.733,0-10.423,4.691-10.423,10.424l0,0
			c0,5.733,4.691,10.424,10.423,10.424h58.355c5.733,0,10.424-4.691,10.424-10.424l0,0C525.319,75.813,521.152,71.34,515.873,70.843
			z"/>
		<path style="opacity:0.86;fill:#FFFFFF;" d="M119.444,110.499c0.151-0.761,0.233-1.546,0.233-2.351
			c0-6.66-5.399-12.059-12.059-12.059c-2.731,0-5.241,0.918-7.262,2.448c-3.112-4.119-8.049-6.783-13.61-6.783
			c-9.415,0-17.047,7.632-17.047,17.047c0,0.558,0.029,1.11,0.081,1.654h-1.309c-4.925,0-8.955,4.03-8.955,8.955v0
			c0,4.925,4.03,8.955,8.955,8.955h50.133c4.925,0,8.955-4.03,8.955-8.955v0C127.559,114.77,123.979,110.927,119.444,110.499z"/>
	</g>
	<g style="opacity:0.63;">
		<circle style="opacity:0.86;fill:#FFFFFF;" cx="169.718" cy="59.471" r="3.529"/>
		<circle style="opacity:0.86;fill:#FFFFFF;" cx="363.546" cy="59.471" r="3.529"/>
		<path style="opacity:0.86;fill:#FFFFFF;" d="M670.033,91.755c0,1.949-1.58,3.529-3.529,3.529c-1.949,0-3.53-1.58-3.53-3.529
			c0-1.949,1.58-3.529,3.53-3.529C668.453,88.226,670.033,89.806,670.033,91.755z"/>
		<circle style="opacity:0.86;fill:#FFFFFF;" cx="474.235" cy="128.366" r="3.529"/>
		<circle style="opacity:0.86;fill:#FFFFFF;" cx="30.588" cy="34.294" r="3.529"/>
		<circle style="opacity:0.86;fill:#FFFFFF;" cx="144.88" cy="150.735" r="1.765"/>
		<circle style="opacity:0.86;fill:#FFFFFF;" cx="307.306" cy="252.495" r="1.765"/>
		<circle style="opacity:0.86;fill:#FFFFFF;" cx="245.647" cy="34.294" r="1.765"/>
		<path style="opacity:0.86;fill:#FFFFFF;" d="M295.458,82.117c0,0.975-0.79,1.765-1.765,1.765s-1.765-0.79-1.765-1.765
			c0-0.975,0.79-1.765,1.765-1.765S295.458,81.142,295.458,82.117z"/>
		<circle style="opacity:0.86;fill:#FFFFFF;" cx="502.044" cy="190.377" r="1.765"/>
		<path style="opacity:0.86;fill:#FFFFFF;" d="M664.739,136.042c0,0.975-0.79,1.765-1.765,1.765c-0.975,0-1.765-0.79-1.765-1.765
			s0.79-1.765,1.765-1.765C663.949,134.277,664.739,135.068,664.739,136.042z"/>
		<path style="opacity:0.86;fill:#FFFFFF;" d="M355.784,115.657c0,0.975-0.79,1.765-1.765,1.765c-0.975,0-1.765-0.79-1.765-1.765
			c0-0.975,0.79-1.765,1.765-1.765C354.994,113.892,355.784,114.682,355.784,115.657z"/>
		<circle style="opacity:0.86;fill:#FFFFFF;" cx="713.592" cy="30.765" r="1.765"/>
		<path style="opacity:0.86;fill:#FFFFFF;" d="M565.451,27.324c0,0.975-0.79,1.765-1.765,1.765c-0.975,0-1.765-0.79-1.765-1.765
			s0.79-1.765,1.765-1.765C564.661,25.559,565.451,26.35,565.451,27.324z"/>
		<path style="opacity:0.86;fill:#FFFFFF;" d="M317.529,24.677c0,0.487-0.395,0.882-0.882,0.882c-0.487,0-0.882-0.395-0.882-0.882
			c0-0.487,0.395-0.882,0.882-0.882C317.134,23.795,317.529,24.19,317.529,24.677z"/>
		<path style="opacity:0.86;fill:#FFFFFF;" d="M229.466,82.117c0,0.487-0.395,0.882-0.882,0.882c-0.487,0-0.882-0.395-0.882-0.882
			c0-0.487,0.395-0.882,0.882-0.882C229.071,81.234,229.466,81.629,229.466,82.117z"/>
		<path style="opacity:0.86;fill:#FFFFFF;" d="M123.706,208.785c0,0.487-0.395,0.882-0.882,0.882c-0.487,0-0.882-0.395-0.882-0.882
			c0-0.487,0.395-0.882,0.882-0.882C123.311,207.902,123.706,208.297,123.706,208.785z"/>
		<path style="opacity:0.86;fill:#FFFFFF;" d="M593.645,70.332c0,0.487-0.395,0.882-0.882,0.882s-0.882-0.395-0.882-0.882
			s0.395-0.882,0.882-0.882S593.645,69.845,593.645,70.332z"/>
		<path style="opacity:0.86;fill:#FFFFFF;" d="M720.65,118.304c0,0.487-0.395,0.882-0.882,0.882s-0.882-0.395-0.882-0.882
			s0.395-0.882,0.882-0.882S720.65,117.817,720.65,118.304z"/>
		<path style="opacity:0.86;fill:#FFFFFF;" d="M424.118,30.765c0,0.487-0.395,0.882-0.882,0.882s-0.882-0.395-0.882-0.882
			s0.395-0.882,0.882-0.882S424.118,30.277,424.118,30.765z"/>
		<path style="opacity:0.86;fill:#FFFFFF;" d="M435.603,52.363c0,0.975-0.79,1.765-1.765,1.765s-1.765-0.79-1.765-1.765
			c0-0.975,0.79-1.765,1.765-1.765S435.603,51.389,435.603,52.363z"/>
		<path style="opacity:0.86;fill:#FFFFFF;" d="M641.419,44.882c0,0.975-0.79,1.765-1.765,1.765s-1.765-0.79-1.765-1.765
			c0-0.975,0.79-1.765,1.765-1.765S641.419,43.908,641.419,44.882z"/>
		<path style="opacity:0.86;fill:#FFFFFF;" d="M96.289,44.882c0,0.975-0.79,1.765-1.765,1.765s-1.765-0.79-1.765-1.765
			c0-0.975,0.79-1.765,1.765-1.765S96.289,43.908,96.289,44.882z"/>
		<path style="opacity:0.86;fill:#FFFFFF;" d="M39.562,176.114c0,0.975-0.79,1.765-1.765,1.765c-0.975,0-1.765-0.79-1.765-1.765
			c0-0.975,0.79-1.765,1.765-1.765C38.772,174.349,39.562,175.139,39.562,176.114z"/>
	</g>
</g>
<g id="OBJECTS">
	<g>
		<g>
			<g>
				<path style="fill:#FFFFFF;" d="M293.693,311.108l110.082-193.607c3.62-6.367,14.981-6.611,19.036-0.409l120.311,184.006
					L293.693,311.108z"/>
				<path style="opacity:0.88;fill:#034485;" d="M293.693,311.108l110.082-193.607c3.62-6.367,14.981-6.611,19.036-0.409
					l120.311,184.006L293.693,311.108z"/>
				<polygon style="opacity:0.12;fill:#CEF0FF;" points="419.444,169.943 460.06,304.989 447.897,304.989 414.208,168.018 				"/>
				<path style="fill:#E6F5FC;" d="M373.456,170.088l29.775-52.366c3.817-6.713,15.796-6.97,20.072-0.431l32.364,49.498
					l-15.454-8.56c-4.353-2.411-10.388-1.424-13.16,2.154l-7.484,9.658c-1.173,1.514-3.924,1.604-5.251,0.171l-8.68-9.366
					c-4.143-4.471-12.302-5.11-17.482-1.37L373.456,170.088z"/>
				<path style="opacity:0.14;fill:#FFFFFF;" d="M386.561,188.743c0,0.902-0.731,1.633-1.634,1.633
					c-0.902,0-1.633-0.731-1.633-1.633c0-0.902,0.731-1.633,1.633-1.633C385.83,187.11,386.561,187.841,386.561,188.743z"/>
				<circle style="opacity:0.14;fill:#FFFFFF;" cx="457.863" cy="199.766" r="2.197"/>
				<circle style="opacity:0.14;fill:#FFFFFF;" cx="349.382" cy="265.975" r="2.873"/>
				<path style="opacity:0.14;fill:#FFFFFF;" d="M434.937,172.331c0,0.607-0.492,1.098-1.098,1.098s-1.098-0.492-1.098-1.098
					s0.492-1.098,1.098-1.098S434.937,171.725,434.937,172.331z"/>
				<path style="opacity:0.14;fill:#FFFFFF;" d="M403.776,237.279c0,0.607-0.492,1.098-1.098,1.098s-1.098-0.492-1.098-1.098
					s0.492-1.098,1.098-1.098S403.776,236.672,403.776,237.279z"/>
				<path style="opacity:0.14;fill:#FFFFFF;" d="M469.882,236.504c0,0.607-0.492,1.098-1.098,1.098s-1.098-0.492-1.098-1.098
					s0.492-1.098,1.098-1.098S469.882,235.897,469.882,236.504z"/>
				<path style="opacity:0.16;fill:#CEF0FF;" d="M446.164,304.989l-42.388-187.488c3.62-6.367,14.981-6.611,19.036-0.409
					l120.311,184.006L446.164,304.989z"/>
			</g>
			<g>
				<path style="opacity:0.71;fill:#034485;" d="M591.762,300.331l85.304-144.133c2.805-4.74,11.609-4.921,14.751-0.304l58.3,85.661
					l-0.114,52.676L591.762,300.331z"/>
				<circle style="opacity:0.25;fill:#FFFFFF;" cx="683.76" cy="235.39" r="1.889"/>
				<path style="opacity:0.25;fill:#FFFFFF;" d="M646.56,250.545c0,1.687,1.368,3.054,3.055,3.054c1.687,0,3.055-1.367,3.055-3.054
					c0-1.687-1.368-3.055-3.055-3.055C647.927,247.49,646.56,248.858,646.56,250.545z"/>
				<path style="opacity:0.25;fill:#FFFFFF;" d="M706.089,203.785c0,0.613,0.496,1.109,1.109,1.109c0.612,0,1.109-0.496,1.109-1.109
					c0-0.612-0.497-1.109-1.109-1.109C706.586,202.676,706.089,203.172,706.089,203.785z"/>
				<path style="opacity:0.25;fill:#FFFFFF;" d="M734.303,228.092c0,0.522,0.423,0.945,0.945,0.945c0.522,0,0.944-0.423,0.944-0.945
					c0-0.522-0.423-0.944-0.944-0.944C734.726,227.148,734.303,227.571,734.303,228.092z"/>
				<path style="opacity:0.25;fill:#FFFFFF;" d="M718.823,258.153c0,0.522,0.423,0.944,0.945,0.944s0.944-0.423,0.944-0.944
					c0-0.522-0.423-0.944-0.944-0.944S718.823,257.632,718.823,258.153z"/>
				<path style="opacity:0.25;fill:#FFFFFF;" d="M674.052,196.052c0,0.44,0.357,0.797,0.797,0.797c0.44,0,0.797-0.357,0.797-0.797
					c0-0.44-0.357-0.797-0.797-0.797C674.409,195.255,674.052,195.612,674.052,196.052z"/>
				<path style="opacity:0.25;fill:#FFFFFF;" d="M655.672,215.587c0,0.522,0.423,0.944,0.944,0.944s0.945-0.423,0.945-0.944
					c0-0.522-0.423-0.945-0.945-0.945S655.672,215.065,655.672,215.587z"/>
				<path style="fill:#E6F5FC;" d="M653.571,195.347l23.073-38.985c2.958-4.997,12.241-5.189,15.554-0.321l25.079,36.85
					l-11.975-6.373c-3.373-1.795-8.049-1.06-10.198,1.604l-5.799,7.19c-0.909,1.127-3.04,1.194-4.069,0.127l-6.726-6.972
					c-3.211-3.328-9.533-3.804-13.547-1.02L653.571,195.347z"/>
				<polygon style="opacity:0.12;fill:#CEF0FF;" points="689.071,196.849 718.823,295.776 709.914,295.776 685.235,195.439 				"/>
				<path style="opacity:0.16;fill:#CEF0FF;" d="M709.914,295.776l-32.847-139.578c2.805-4.74,11.609-4.921,14.751-0.304
					l57.594,84.624l0.706,1.037l-0.114,52.676L709.914,295.776z"/>
			</g>
			<g>
				<path style="fill:#3BA8E3;" d="M478.594,291.085l82.932-142.184c2.727-4.676,11.286-4.855,14.341-0.3l90.637,135.133
					L478.594,291.085z"/>
				<polygon style="opacity:0.12;fill:#CEF0FF;" points="573.486,188.52 603.239,287.447 594.33,287.447 569.651,187.11 				"/>
				<path style="fill:#E6F5FC;" d="M538.684,187.521l22.431-38.457c2.875-4.93,11.9-5.119,15.121-0.317l24.382,36.351l-11.642-6.287
					c-3.28-1.771-7.826-1.045-9.915,1.582l-5.638,7.092c-0.884,1.112-2.956,1.178-3.956,0.126l-6.539-6.878
					c-3.122-3.283-9.268-3.753-13.171-1.006L538.684,187.521z"/>
				<circle style="opacity:0.25;fill:#FFFFFF;" cx="548.235" cy="196.849" r="1.177"/>
				<circle style="opacity:0.25;fill:#FFFFFF;" cx="624.646" cy="247.49" r="1.177"/>
				<circle style="opacity:0.25;fill:#FFFFFF;" cx="562.703" cy="240.378" r="1.177"/>
				<circle style="opacity:0.25;fill:#FFFFFF;" cx="597.294" cy="198.026" r="1.177"/>
				<circle style="opacity:0.25;fill:#FFFFFF;" cx="597.294" cy="225.332" r="1.177"/>
				<path style="opacity:0.25;fill:#FFFFFF;" d="M536.706,255.201c0,1.495-1.212,2.706-2.706,2.706
					c-1.495,0-2.706-1.212-2.706-2.706c0-1.495,1.212-2.706,2.706-2.706C535.494,252.495,536.706,253.706,536.706,255.201z"/>
				<path style="opacity:0.16;fill:#CEF0FF;" d="M593.459,286.592l-31.934-137.69c2.727-4.676,11.286-4.855,14.341-0.3
					l90.637,135.133L593.459,286.592z"/>
			</g>
		</g>
		<g>
			<g>
				<g>
					<path style="fill:#FFFFFF;" d="M44.544,243.216c79.796,21.629,145.458,64.696,184.04,119.693
						C117.586,373.027,30.095,375.868,0,376.594V233.661C15.256,236.114,30.133,239.309,44.544,243.216z"/>
				</g>
			</g>
			<g>
				<g>
					<g>
						<g>
							<g>
								<path style="fill:#C7EDF9;" d="M307.306,310.964c42.957-32.022,102.564-51.866,168.459-51.866
									c56.401,0,108.189,14.542,148.881,38.809c-71.844,12.373-134.607,34.916-181.913,63.933
									C405.878,340.152,359.678,322.665,307.306,310.964z"/>
							</g>
						</g>
					</g>
					<g style="opacity:0.14;">
						<g>
							<g>
								<path style="fill:#3BA8E3;" d="M307.306,321.53c42.957-32.022,102.564-51.866,168.459-51.866
									c56.401,0,108.189,14.542,148.881,38.809c-71.844,12.373-134.607,34.916-181.913,63.933
									C405.878,350.718,359.678,333.23,307.306,321.53z"/>
							</g>
							<g>
								<path style="fill:#C7EDF9;" d="M450.696,282.018c0,0.549-0.446,0.995-0.995,0.995s-0.995-0.445-0.995-0.995
									s0.445-0.995,0.995-0.995S450.696,281.469,450.696,282.018z"/>
							</g>
							<g>
								<path style="fill:#C7EDF9;" d="M492.369,279.219c0,1.298-1.052,2.35-2.35,2.35c-1.298,0-2.351-1.052-2.351-2.35
									s1.052-2.35,2.351-2.35C491.317,276.869,492.369,277.921,492.369,279.219z"/>
							</g>
							<g>
								<path style="fill:#C7EDF9;" d="M508.62,282.565c0,0.549-0.445,0.995-0.995,0.995c-0.549,0-0.995-0.445-0.995-0.995
									s0.445-0.995,0.995-0.995C508.174,281.57,508.62,282.015,508.62,282.565z"/>
							</g>
							<g>
								<path style="fill:#C7EDF9;" d="M390.931,297.021c0,0.549-0.445,0.995-0.995,0.995s-0.995-0.445-0.995-0.995
									c0-0.549,0.445-0.995,0.995-0.995S390.931,296.471,390.931,297.021z"/>
							</g>
						</g>
					</g>
					<g style="opacity:0.14;">
						<g>
							<g>
								<path style="fill:#3BA8E3;" d="M307.306,350.879c42.957-32.022,102.564-51.866,168.459-51.866
									c56.401,0,108.189,14.542,148.881,38.809c-71.844,12.373-134.607,34.916-181.913,63.933
									C405.878,380.067,359.678,362.58,307.306,350.879z"/>
							</g>
						</g>
					</g>
				</g>
				<g>
					<path style="fill:#E1F9FF;" d="M80.397,295.052c43.297-33.939,99.337-51.04,157.688-43.184
						c49.943,6.723,93.413,30.636,125.461,65.087c-65.65,6.528-124.928,26.544-171.583,56.3
						C162.889,342.406,124.851,315.568,80.397,295.052z"/>
					<path style="opacity:0.14;fill:#3BA8E3;" d="M76.785,321.879c43.297-33.939,99.337-51.04,157.688-43.184
						c49.943,6.723,93.414,30.636,125.461,65.087c-65.65,6.528-124.928,26.544-171.583,56.3
						C159.278,369.234,121.24,342.395,76.785,321.879z"/>
					<circle style="opacity:0.14;fill:#3BA8E3;" cx="176.482" cy="292.996" r="1.541"/>
					<path style="opacity:0.14;fill:#3BA8E3;" d="M148.395,270.434c0,0.426-0.345,0.771-0.771,0.771
						c-0.426,0-0.771-0.345-0.771-0.771c0-0.426,0.345-0.771,0.771-0.771C148.05,269.664,148.395,270.009,148.395,270.434z"/>
					<path style="opacity:0.14;fill:#3BA8E3;" d="M215.036,259.836c0,0.426-0.345,0.771-0.771,0.771s-0.771-0.345-0.771-0.771
						c0-0.426,0.345-0.771,0.771-0.771S215.036,259.411,215.036,259.836z"/>
					<path style="opacity:0.14;fill:#3BA8E3;" d="M294.464,281.794c0,0.426-0.345,0.771-0.771,0.771s-0.771-0.345-0.771-0.771
						c0-0.426,0.345-0.771,0.771-0.771S294.464,281.368,294.464,281.794z"/>
				</g>
				<g>
					<path style="fill:#E6F8FF;" d="M633.443,353.845c-41.445,0-79.235,2.264-116.919,9.865l0,0c-0.022,0.007,0.022-0.007,0,0
						c-16.571,3.345-34.949,4.574-50.548,9.228c7.276-9.308,15.338-22.048,24.081-30.5c35.796-34.604,83.287-61.487,137.651-76.243
						c21.729-5.898,44.546-9.874,68.16-11.613c18.58-1.368,36.819-1.284,54.566,0.104v112.659
						C713.373,360.017,674.109,353.845,633.443,353.845z"/>
					<path style="opacity:0.13;fill:#3BA8E3;" d="M633.443,353.906c-41.445,0-79.235,2.264-116.919,9.865l0,0
						c-0.022,0.007,0.022-0.007,0,0c-16.571,3.345-34.949,4.574-50.548,9.228c7.276-9.308,15.338-22.048,24.081-30.5
						c35.796-34.604,83.287-61.487,137.651-76.243c21.729-5.898,44.546-9.874,68.16-11.613c18.58-1.368,36.819-1.284,54.566,0.104
						v112.659C713.373,360.078,674.109,353.906,633.443,353.906z"/>
					<path style="opacity:0.13;fill:#FFFFFF;" d="M633.443,375.738c-41.445,0-79.235,2.264-116.919,9.865l0,0
						c-0.022,0.008,0.022-0.007,0,0c-16.571,3.345-34.949,4.574-50.548,9.228c7.276-9.308,15.338-22.048,24.081-30.5
						c35.796-34.604,83.287-61.487,137.651-76.243c21.729-5.898,44.546-9.874,68.16-11.613c18.58-1.368,36.819-1.284,54.566,0.104
						v112.659C713.373,381.91,674.109,375.738,633.443,375.738z"/>
					<path style="opacity:0.47;fill:none;stroke:#FFFFFF;stroke-miterlimit:10;" d="M627.707,331.21
						c21.729-5.898,44.546-9.874,68.16-11.613c18.58-1.368,36.819-1.284,54.566,0.104"/>
					<path style="opacity:0.47;fill:none;stroke:#FFFFFF;stroke-miterlimit:10;" d="M490.057,357.686
						c35.796-34.604,83.287-61.487,137.651-76.243c21.729-5.898,44.546-9.874,68.16-11.613c18.58-1.368,36.819-1.284,54.566,0.104"
						/>
				</g>
				<g>
					<g>
						<g>
							<path style="fill:#A5E1F8;" d="M746.725,371.286c-8.451,1.909-16.709,3.994-24.73,6.267
								c-55.466,10.215-112.589,16.63-161.199,20.651c-20.415-26.408-55.159-47.087-97.382-57.473
								c37.367-18.713,85.33-29.962,137.639-29.962c30.964,0,60.399,3.949,87.022,11.047c29.648,7.904,41.06,10.887,61.924,25.537
								C750,360.588,752.169,366.013,746.725,371.286z"/>
						</g>
					</g>
				</g>
				<path style="opacity:0.47;fill:none;stroke:#034485;stroke-miterlimit:10;" d="M516.524,378.958
					C516.502,378.965,516.547,378.95,516.524,378.958"/>
				<g>
					<path style="fill:#CEF0FF;" d="M483.612,378.684c-9.802,2.214-19.381,4.632-28.684,7.268
						c-64.332,11.848-130.587,19.288-186.967,23.953c-23.679-30.629-63.976-54.615-112.949-66.66
						c43.341-21.704,98.97-34.751,159.642-34.751c35.914,0,70.054,4.58,100.933,12.812c34.387,9.168,64.722,22.869,88.921,39.862
						C496.921,366.72,489.926,372.568,483.612,378.684z"/>
					<path style="fill:#7EC7F4;" d="M483.612,378.684c-9.802,2.214-19.381,4.632-28.684,7.268
						c-64.332,11.848-130.587,19.288-186.967,23.953c-23.679-30.629-63.976-54.615-112.949-66.66
						c43.341-21.704,98.97-34.751,159.642-34.751c35.914,0,70.054,4.58,100.933,12.812c34.387,9.168,64.722,22.869,88.921,39.862
						C496.921,366.72,489.926,372.568,483.612,378.684z"/>
					<circle style="opacity:0.14;fill:#047DC1;" cx="315.18" cy="325.55" r="0.94"/>
					<circle style="opacity:0.14;fill:#047DC1;" cx="419.348" cy="357.686" r="0.94"/>
					<path style="opacity:0.14;fill:#047DC1;" d="M251.214,354.981c0,0.792-0.642,1.434-1.435,1.434
						c-0.792,0-1.434-0.642-1.434-1.434c0-0.792,0.642-1.434,1.434-1.434C250.572,353.547,251.214,354.189,251.214,354.981z"/>
					<path style="opacity:0.14;fill:#047DC1;" d="M351.684,383.791c0,0.834-0.676,1.51-1.51,1.51c-0.834,0-1.51-0.676-1.51-1.51
						c0-0.834,0.676-1.51,1.51-1.51C351.008,382.281,351.684,382.957,351.684,383.791z"/>
				</g>
				<path style="fill:none;stroke:#3BA8E3;stroke-miterlimit:10;" d="M483.612,392.484c-9.802,2.214-19.381,4.632-28.684,7.268
					c-64.332,11.848-130.587,19.288-186.967,23.953c-23.679-30.629-63.976-54.615-112.949-66.66
					c43.341-21.704,98.97-34.751,159.642-34.751c35.914,0,70.054,4.58,100.933,12.812c34.387,9.168,64.722,22.869,88.921,39.862
					C496.921,380.521,489.926,386.369,483.612,392.484z"/>
			</g>
		</g>
	</g>
	<g>
		<path style="opacity:0.25;fill:#FFFFFF;" d="M483.829,315.088c0,0.522,0.423,0.945,0.944,0.945c0.522,0,0.945-0.423,0.945-0.945
			c0-0.522-0.423-0.944-0.945-0.944C484.252,314.143,483.829,314.566,483.829,315.088z"/>
		<g>
			<polygon style="fill:#47B7F6;" points="545.565,328.52 560.363,328.52 555.762,311.673 549.975,309.537 554.76,308.007 
				552.964,301.431 550.208,291.402 546.118,290.71 549.788,290.056 545.565,274.342 540.144,294.193 543.525,295.048 
				539.602,296.177 538.167,301.431 533.791,317.454 540.976,318.136 532.745,321.283 530.768,328.52 			"/>
			
				<line style="fill:none;stroke:#034485;stroke-width:2;stroke-linecap:round;stroke-miterlimit:10;" x1="545.565" y1="299.054" x2="545.565" y2="339.671"/>
			<path style="fill:#FFFFFF;" d="M543.168,287.42c0,0.285,0.231,0.517,0.517,0.517c0.285,0,0.517-0.231,0.517-0.517
				c0-0.285-0.231-0.517-0.517-0.517C543.4,286.903,543.168,287.135,543.168,287.42z"/>
			<circle style="fill:#FFFFFF;" cx="551.176" cy="317.169" r="0.517"/>
			<circle style="fill:#FFFFFF;" cx="540.983" cy="302.876" r="0.258"/>
			<circle style="fill:#FFFFFF;" cx="548.696" cy="298.038" r="1.017"/>
			<circle style="fill:#FFFFFF;" cx="541.241" cy="322.077" r="1.017"/>
			<path style="fill:#FFFFFF;" d="M538.174,310.884c0,0.562,0.455,1.017,1.017,1.017c0.562,0,1.017-0.455,1.017-1.017
				c0-0.561-0.455-1.017-1.017-1.017C538.63,309.867,538.174,310.322,538.174,310.884z"/>
		</g>
		<g>
			<polygon style="fill:#47B7F6;" points="457.863,329.949 470.682,329.949 466.696,315.354 461.683,313.504 465.828,312.178 
				464.272,306.481 461.885,297.793 458.341,297.194 461.521,296.627 457.863,283.013 453.166,300.211 456.095,300.952 
				452.696,301.93 451.453,306.481 447.662,320.362 453.887,320.953 446.756,323.68 445.044,329.949 			"/>
			
				<line style="fill:none;stroke:#034485;stroke-width:2;stroke-linecap:round;stroke-miterlimit:10;" x1="457.863" y1="304.423" x2="457.863" y2="339.61"/>
			<path style="fill:#FFFFFF;" d="M455.786,294.344c0,0.247,0.2,0.448,0.448,0.448s0.447-0.2,0.447-0.448
				c0-0.247-0.2-0.448-0.447-0.448S455.786,294.096,455.786,294.344z"/>
			<path style="fill:#FFFFFF;" d="M462.276,320.116c0,0.247,0.2,0.447,0.448,0.447c0.247,0,0.448-0.2,0.448-0.447
				s-0.2-0.448-0.448-0.448C462.476,319.668,462.276,319.869,462.276,320.116z"/>
			<path style="fill:#FFFFFF;" d="M453.669,307.733c0,0.124,0.1,0.224,0.224,0.224c0.124,0,0.224-0.1,0.224-0.224
				c0-0.124-0.1-0.224-0.224-0.224C453.769,307.509,453.669,307.61,453.669,307.733z"/>
			<circle style="fill:#FFFFFF;" cx="460.574" cy="303.542" r="0.881"/>
			<path style="fill:#FFFFFF;" d="M453.236,324.368c0,0.487,0.394,0.881,0.881,0.881c0.487,0,0.881-0.394,0.881-0.881
				s-0.394-0.881-0.881-0.881C453.63,323.487,453.236,323.881,453.236,324.368z"/>
			<circle style="fill:#FFFFFF;" cx="452.341" cy="314.671" r="0.881"/>
		</g>
		<g>
			<g>
				<polygon style="fill:#047DC1;" points="570.957,326.767 553.568,326.767 558.975,306.971 565.776,304.461 560.152,302.662 
					562.263,294.935 565.501,283.15 570.308,282.337 565.995,281.569 570.957,263.102 577.328,286.429 573.355,287.435 
					577.965,288.762 579.651,294.935 584.794,313.764 576.35,314.565 586.023,318.264 588.346,326.767 				"/>
				<polyline style="fill:none;stroke:#034485;stroke-width:2;stroke-linecap:round;stroke-miterlimit:10;" points="
					570.957,339.872 570.957,292.142 570.957,292.142 				"/>
				<circle style="fill:#FFFFFF;" cx="573.167" cy="278.471" r="0.607"/>
				<path style="fill:#FFFFFF;" d="M564.971,313.43c0,0.335-0.272,0.607-0.607,0.607c-0.335,0-0.607-0.272-0.607-0.607
					c0-0.335,0.272-0.607,0.607-0.607C564.699,312.823,564.971,313.094,564.971,313.43z"/>
				<path style="fill:#FFFFFF;" d="M576.646,296.633c0,0.168-0.136,0.303-0.304,0.303c-0.168,0-0.304-0.136-0.304-0.303
					c0-0.168,0.136-0.304,0.304-0.304C576.51,296.33,576.646,296.466,576.646,296.633z"/>
				<path style="fill:#FFFFFF;" d="M568.474,290.948c0,0.66-0.535,1.195-1.195,1.195c-0.66,0-1.195-0.535-1.195-1.195
					c0-0.66,0.535-1.195,1.195-1.195C567.939,289.753,568.474,290.288,568.474,290.948z"/>
				<path style="fill:#FFFFFF;" d="M577.233,319.197c0,0.66-0.535,1.195-1.195,1.195c-0.66,0-1.195-0.535-1.195-1.195
					c0-0.66,0.535-1.195,1.195-1.195C576.699,318.002,577.233,318.537,577.233,319.197z"/>
				<path style="fill:#FFFFFF;" d="M579.643,306.043c0,0.66-0.535,1.195-1.195,1.195s-1.195-0.535-1.195-1.195
					c0-0.66,0.535-1.195,1.195-1.195S579.643,305.383,579.643,306.043z"/>
			</g>
		</g>
		<g>
			<rect x="495.127" y="320.46" style="fill:#F15354;" width="30.092" height="19.229"/>
			<polygon style="fill:#FFFFFF;" points="486.247,301.68 495.127,320.46 525.219,320.46 516.698,301.326 			"/>
			<polygon style="fill:#C13A41;" points="486.247,301.68 477.58,320.46 477.58,339.689 495.127,339.689 495.127,320.46 			"/>
			<rect x="502.527" y="295.881" style="fill:#F15354;" width="3.714" height="5.445"/>
			<rect x="501.823" y="295.881" style="fill:#FFFFFF;" width="5.124" height="2.011"/>
			<rect x="483.566" y="327.442" style="fill:#373449;" width="5.098" height="12.195"/>
			<rect x="502.836" y="327.204" style="fill:#373449;" width="4.789" height="4.789"/>
			<rect x="514.755" y="327.204" style="fill:#373449;" width="4.789" height="4.789"/>
		</g>
	</g>
	<g>
		<rect y="339.759" style="fill:#FFFFFF;" width="750.924" height="131.102"/>
		<g>
			<rect y="360.177" style="opacity:0.73;fill:#CEF0FF;" width="750.924" height="110.685"/>
			<rect y="405.3" style="opacity:0.73;fill:#CEF0FF;" width="750.924" height="9.209"/>
			<rect y="382.998" style="opacity:0.73;fill:#CEF0FF;" width="750.924" height="4.605"/>
			<path style="fill:#FFFFFF;" d="M238.328,398.856H7.319c-4.042,0-7.319-3.277-7.319-7.319l0,0c0-4.042,3.277-7.319,7.319-7.319
				h231.01c4.042,0,7.319,3.277,7.319,7.319l0,0C245.647,395.579,242.37,398.856,238.328,398.856z"/>
			<g style="opacity:0.72;">
				<path style="fill:#FFFFFF;" d="M418.784,386.567H311.059c-1.619,0-2.931-1.312-2.931-2.931v-1.275
					c0-1.619,1.312-2.931,2.931-2.931h107.725c1.619,0,2.931,1.312,2.931,2.931v1.275
					C421.715,385.254,420.403,386.567,418.784,386.567z"/>
				<path style="fill:#FFFFFF;" d="M453.455,393.704H345.73c-1.619,0-2.931-1.312-2.931-2.931v-1.275
					c0-1.619,1.312-2.931,2.931-2.931h107.725c1.619,0,2.931,1.312,2.931,2.931v1.275
					C456.386,392.392,455.073,393.704,453.455,393.704z"/>
			</g>
			<g style="opacity:0.61;">
				<path style="fill:#FFFFFF;" d="M513.919,404.348h12.22c1.619,0,2.931,1.312,2.931,2.931v0.674c0,1.619-1.312,2.931-2.931,2.931
					h-12.22c-1.619,0-2.931-1.312-2.931-2.931v-0.674C510.988,405.66,512.3,404.348,513.919,404.348z"/>
			</g>
			<g style="opacity:0.61;">
				<path style="fill:#FFFFFF;" d="M538.888,368.226h5.015c0.784,0,1.419,0.635,1.419,1.419l0,0c0,0.784-0.635,1.419-1.419,1.419
					h-5.015c-0.784,0-1.419-0.635-1.419-1.419l0,0C537.469,368.862,538.105,368.226,538.888,368.226z"/>
			</g>
		</g>
		<g style="opacity:0.61;">
			<path style="fill:#FFFFFF;" d="M633.233,369.513h29.013c1.619,0,2.931,1.312,2.931,2.931v0.674c0,1.619-1.312,2.931-2.931,2.931
				h-29.013c-1.619,0-2.931-1.312-2.931-2.931v-0.674C630.302,370.825,631.614,369.513,633.233,369.513z"/>
		</g>
		
			<line style="opacity:0.26;fill:none;stroke:#3BA8E3;stroke-miterlimit:10;" x1="469.882" y1="351.454" x2="749.782" y2="351.454"/>
		
			<line style="opacity:0.26;fill:none;stroke:#3BA8E3;stroke-linecap:round;stroke-miterlimit:10;" x1="375" y1="351.454" x2="429.765" y2="351.454"/>
		
			<line style="opacity:0.26;fill:none;stroke:#3BA8E3;stroke-linecap:round;stroke-miterlimit:10;" x1="9.153" y1="351.454" x2="298.18" y2="351.454"/>
	</g>
	<g>
		<defs>
			<rect id="SVGID_1_" x="583.358" y="187.11" width="166.424" height="230.36"/>
		</defs>
		<clipPath id="SVGID_00000131363724142490354800000005007207927856507787_">
			<use xlink:href="#SVGID_1_"  style="overflow:visible;"/>
		</clipPath>
		<g style="clip-path:url(#SVGID_00000131363724142490354800000005007207927856507787_);">
			<g>
				<polygon style="fill:#A5E1F8;" points="709.836,395.473 762.358,395.473 746.027,335.678 725.487,328.095 742.472,322.663 
					736.097,299.322 726.316,263.726 711.797,261.27 724.824,258.95 709.836,203.172 690.592,273.631 702.594,276.669 
					688.668,280.676 683.576,299.322 668.042,356.196 693.546,358.616 664.329,369.789 657.315,395.473 				"/>
				
					<line style="fill:none;stroke:#034485;stroke-width:2;stroke-linecap:round;stroke-miterlimit:10;" x1="709.836" y1="290.888" x2="709.836" y2="435.056"/>
				<path style="fill:#FFFFFF;" d="M701.328,249.593c0,1.013,0.821,1.834,1.834,1.834c1.013,0,1.834-0.821,1.834-1.834
					c0-1.013-0.821-1.834-1.834-1.834C702.149,247.759,701.328,248.58,701.328,249.593z"/>
				<path style="fill:#FFFFFF;" d="M727.917,355.186c0,1.013,0.821,1.834,1.834,1.834c1.013,0,1.834-0.821,1.834-1.834
					c0-1.013-0.821-1.834-1.834-1.834C728.738,353.352,727.917,354.173,727.917,355.186z"/>
				<path style="fill:#FFFFFF;" d="M692.654,304.452c0,0.506,0.41,0.917,0.917,0.917c0.506,0,0.917-0.41,0.917-0.917
					s-0.41-0.917-0.917-0.917C693.064,303.535,692.654,303.946,692.654,304.452z"/>
				<path style="fill:#FFFFFF;" d="M717.337,287.279c0,1.993,1.616,3.609,3.609,3.609c1.993,0,3.609-1.616,3.609-3.609
					c0-1.993-1.616-3.609-3.609-3.609C718.953,283.67,717.337,285.286,717.337,287.279z"/>
				<circle style="fill:#FFFFFF;" cx="694.487" cy="372.606" r="3.609"/>
				<circle style="fill:#FFFFFF;" cx="687.211" cy="332.875" r="3.609"/>
			</g>
			<g>
				<polygon style="fill:#47B7F6;" points="635.437,394.982 671.529,394.982 660.306,353.892 646.191,348.681 657.863,344.949 
					653.483,328.909 646.761,304.448 636.784,302.76 645.736,301.166 635.437,262.836 622.212,311.255 630.46,313.343 
					620.89,316.096 617.391,328.909 606.716,367.992 624.242,369.655 604.165,377.333 599.344,394.982 				"/>
				
					<line style="fill:none;stroke:#034485;stroke-width:2;stroke-linecap:round;stroke-miterlimit:10;" x1="635.437" y1="323.114" x2="635.437" y2="422.183"/>
				<circle style="fill:#FFFFFF;" cx="630.85" cy="294.736" r="1.26"/>
				<circle style="fill:#FFFFFF;" cx="649.122" cy="367.298" r="1.26"/>
				<path style="fill:#FFFFFF;" d="M623.629,332.435c0,0.348,0.282,0.63,0.63,0.63c0.348,0,0.63-0.282,0.63-0.63
					c0-0.348-0.282-0.63-0.63-0.63C623.911,331.805,623.629,332.087,623.629,332.435z"/>
				<path style="fill:#FFFFFF;" d="M640.591,320.634c0,1.37,1.11,2.48,2.48,2.48s2.48-1.11,2.48-2.48c0-1.37-1.11-2.48-2.48-2.48
					S640.591,319.264,640.591,320.634z"/>
				<circle style="fill:#FFFFFF;" cx="624.889" cy="379.269" r="2.48"/>
				<path style="fill:#FFFFFF;" d="M617.409,351.966c0,1.37,1.11,2.48,2.48,2.48c1.37,0,2.48-1.11,2.48-2.48
					c0-1.37-1.11-2.48-2.48-2.48C618.519,349.486,617.409,350.597,617.409,351.966z"/>
			</g>
		</g>
	</g>
	<g>
		<g>
			<polygon style="fill:#047DC1;" points="156.059,336.516 128.712,336.516 137.215,305.382 147.91,301.434 139.066,298.606 
				142.385,286.453 147.479,267.919 155.038,266.64 148.255,265.432 156.059,236.39 166.079,273.076 159.829,274.658 
				167.08,276.744 169.732,286.453 177.82,316.066 164.541,317.325 179.753,323.143 183.406,336.516 			"/>
			
				<line style="fill:none;stroke:#034485;stroke-width:2;stroke-linecap:round;stroke-miterlimit:10;" x1="156.059" y1="282.061" x2="156.059" y2="357.126"/>
			<path style="fill:#FFFFFF;" d="M160.489,260.56c0,0.527-0.427,0.955-0.955,0.955c-0.527,0-0.955-0.427-0.955-0.955
				c0-0.527,0.427-0.955,0.955-0.955C160.061,259.605,160.489,260.033,160.489,260.56z"/>
			<circle style="fill:#FFFFFF;" cx="145.69" cy="315.54" r="0.955"/>
			<circle style="fill:#FFFFFF;" cx="164.528" cy="289.124" r="0.477"/>
			<path style="fill:#FFFFFF;" d="M152.153,280.182c0,1.038-0.841,1.879-1.879,1.879s-1.879-0.841-1.879-1.879
				c0-1.038,0.841-1.879,1.879-1.879S152.153,279.144,152.153,280.182z"/>
			<path style="fill:#FFFFFF;" d="M165.93,324.61c0,1.038-0.841,1.879-1.879,1.879s-1.879-0.841-1.879-1.879
				c0-1.038,0.841-1.879,1.879-1.879S165.93,323.572,165.93,324.61z"/>
			<path style="fill:#FFFFFF;" d="M169.718,303.923c0,1.038-0.841,1.879-1.879,1.879c-1.038,0-1.879-0.841-1.879-1.879
				c0-1.038,0.841-1.879,1.879-1.879C168.877,302.044,169.718,302.885,169.718,303.923z"/>
		</g>
		<g>
			<polygon style="fill:#47B7F6;" points="204.151,391.982 240.243,391.982 229.02,350.892 214.906,345.681 226.578,341.949 
				222.197,325.909 215.475,301.448 205.498,299.76 214.45,298.166 204.151,259.836 190.927,308.255 199.174,310.343 
				189.604,313.096 186.105,325.909 175.43,364.992 192.956,366.655 172.879,374.333 168.059,391.982 			"/>
			
				<line style="fill:none;stroke:#034485;stroke-width:2;stroke-linecap:round;stroke-miterlimit:10;" x1="204.151" y1="320.114" x2="204.151" y2="419.183"/>
			<circle style="fill:#FFFFFF;" cx="199.564" cy="291.736" r="1.26"/>
			<circle style="fill:#FFFFFF;" cx="217.836" cy="364.298" r="1.26"/>
			<path style="fill:#FFFFFF;" d="M192.343,329.435c0,0.348,0.282,0.63,0.63,0.63c0.348,0,0.63-0.282,0.63-0.63
				c0-0.348-0.282-0.63-0.63-0.63C192.625,328.805,192.343,329.087,192.343,329.435z"/>
			<circle style="fill:#FFFFFF;" cx="211.785" cy="317.634" r="2.48"/>
			<circle style="fill:#FFFFFF;" cx="193.603" cy="376.269" r="2.48"/>
			<circle style="fill:#FFFFFF;" cx="188.603" cy="348.966" r="2.48"/>
		</g>
		<g>
			<polygon style="fill:#047DC1;" points="257.153,336.461 229.076,336.461 237.806,304.496 248.787,300.442 239.707,297.539 
				243.115,285.061 248.343,266.032 256.105,264.719 249.141,263.479 257.153,233.661 267.44,271.327 261.024,272.951 
				268.469,275.093 271.191,285.061 279.495,315.465 265.862,316.758 281.48,322.731 285.23,336.461 			"/>
			
				<line style="fill:none;stroke:#034485;stroke-width:2;stroke-linecap:round;stroke-miterlimit:10;" x1="257.153" y1="280.552" x2="257.153" y2="357.621"/>
			<circle style="fill:#FFFFFF;" cx="260.721" cy="258.477" r="0.98"/>
			<path style="fill:#FFFFFF;" d="M247.487,314.925c0,0.541-0.439,0.98-0.98,0.98s-0.98-0.439-0.98-0.98
				c0-0.541,0.439-0.98,0.98-0.98S247.487,314.383,247.487,314.925z"/>
			<path style="fill:#FFFFFF;" d="M266.338,287.803c0,0.271-0.219,0.49-0.49,0.49s-0.49-0.22-0.49-0.49s0.219-0.49,0.49-0.49
				S266.338,287.533,266.338,287.803z"/>
			<path style="fill:#FFFFFF;" d="M253.143,278.623c0,1.065-0.864,1.929-1.929,1.929c-1.066,0-1.929-0.864-1.929-1.929
				c0-1.066,0.864-1.929,1.929-1.929C252.279,276.694,253.143,277.557,253.143,278.623z"/>
			<path style="fill:#FFFFFF;" d="M267.288,324.237c0,1.066-0.864,1.929-1.929,1.929c-1.066,0-1.929-0.864-1.929-1.929
				c0-1.066,0.864-1.929,1.929-1.929C266.424,322.308,267.288,323.172,267.288,324.237z"/>
			<path style="fill:#FFFFFF;" d="M271.177,302.998c0,1.065-0.864,1.929-1.929,1.929c-1.066,0-1.929-0.864-1.929-1.929
				c0-1.066,0.864-1.929,1.929-1.929C270.314,301.069,271.177,301.932,271.177,302.998z"/>
		</g>
		<g>
			<g>
				<polygon style="fill:#047DC1;" points="89.737,384.566 37.797,384.566 53.947,325.433 74.26,317.935 57.463,312.563 
					63.767,289.481 73.44,254.279 87.798,251.85 74.915,249.556 89.737,194.396 108.768,264.074 96.898,267.079 110.67,271.041 
					115.707,289.481 131.068,345.724 112.961,348.966 134.74,359.166 141.677,384.566 				"/>
				
					<line style="fill:none;stroke:#034485;stroke-width:3;stroke-linecap:round;stroke-miterlimit:10;" x1="89.737" y1="423.71" x2="89.737" y2="281.14"/>
				<path style="fill:#FFFFFF;" d="M98.151,240.303c0,1.001-0.812,1.813-1.813,1.813c-1.002,0-1.813-0.812-1.813-1.813
					c0-1.002,0.812-1.813,1.813-1.813C97.339,238.489,98.151,239.301,98.151,240.303z"/>
				<path style="fill:#FFFFFF;" d="M71.856,344.725c0,1.002-0.812,1.814-1.813,1.814c-1.002,0-1.813-0.812-1.813-1.814
					c0-1.001,0.812-1.813,1.813-1.813C71.045,342.912,71.856,343.724,71.856,344.725z"/>
				<circle style="fill:#FFFFFF;" cx="105.822" cy="294.554" r="0.907"/>
				<circle style="fill:#FFFFFF;" cx="78.75" cy="277.571" r="3.569"/>
				<circle style="fill:#FFFFFF;" cx="109.392" cy="365.522" r="3.569"/>
				<circle style="fill:#FFFFFF;" cx="108.543" cy="320.114" r="3.569"/>
			</g>
		</g>
	</g>
	<g>
		<defs>
			<rect id="SVGID_00000008124126875281786620000015160313767581670076_" y="364.966" width="750.924" height="134.627"/>
		</defs>
		<clipPath id="SVGID_00000183937506217008632550000001989908343423768757_">
			<use xlink:href="#SVGID_00000008124126875281786620000015160313767581670076_"  style="overflow:visible;"/>
		</clipPath>
		<g style="clip-path:url(#SVGID_00000183937506217008632550000001989908343423768757_);">
			<g>
				<path style="fill:#FFFFFF;" d="M-0.769,381.521c0,0,506.751,34.435,777.122,217.6l-784.227,2.144L-0.769,381.521z"/>
				<path style="opacity:0.24;fill:#CEF0FF;" d="M-0.769,413.827c0,0,506.751,34.435,777.122,217.6l-784.227,2.144L-0.769,413.827z"
					/>
				<path style="fill:none;stroke:#CEF0FF;stroke-miterlimit:10;" d="M-0.769,393.571c0,0,506.751,34.435,777.122,217.6
					l-784.227,2.144L-0.769,393.571z"/>
			</g>
			<g>
				<path style="fill:#FFFFFF;" d="M757.562,381.481c0,0-486.623,14.159-645.96,233.425l653.066-13.68L757.562,381.481z"/>
				<path style="fill:none;stroke:#CEF0FF;stroke-miterlimit:10;" d="M757.562,417.154c0,0-486.623,14.159-645.96,233.425
					l653.066-13.68L757.562,417.154z"/>
				<path style="fill:none;stroke:#CEF0FF;stroke-miterlimit:10;" d="M757.562,454.148c0,0-486.623,14.159-645.96,233.425
					l653.066-13.681L757.562,454.148z"/>
				<circle style="fill:#CEF0FF;" cx="554.941" cy="424.765" r="1.765"/>
				<path style="fill:#CEF0FF;" d="M427.99,482.823c0,0.487-0.395,0.882-0.882,0.882s-0.882-0.395-0.882-0.882
					c0-0.487,0.395-0.882,0.882-0.882S427.99,482.336,427.99,482.823z"/>
				<path style="fill:#CEF0FF;" d="M635.706,453.265c0,0.487-0.395,0.882-0.882,0.882s-0.882-0.395-0.882-0.882
					s0.395-0.882,0.882-0.882S635.706,452.778,635.706,453.265z"/>
				<path style="fill:#CEF0FF;" d="M715.357,398.204c0,0.487-0.395,0.882-0.882,0.882s-0.882-0.395-0.882-0.882
					s0.395-0.882,0.882-0.882S715.357,397.716,715.357,398.204z"/>
			</g>
			<path style="fill:#CEF0FF;" d="M126.812,416.337c0,0.452-0.366,0.818-0.817,0.818c-0.452,0-0.818-0.366-0.818-0.818
				s0.366-0.818,0.818-0.818C126.445,415.519,126.812,415.885,126.812,416.337z"/>
			<circle style="fill:#CEF0FF;" cx="316.471" cy="449.471" r="0.817"/>
			<path style="fill:#CEF0FF;" d="M176.353,466.059c0,0.452-0.366,0.818-0.817,0.818c-0.452,0-0.818-0.366-0.818-0.818
				s0.366-0.818,0.818-0.818C175.987,465.241,176.353,465.607,176.353,466.059z"/>
			<circle style="fill:#CEF0FF;" cx="22.577" cy="424.479" r="1.48"/>
			<circle style="fill:#CEF0FF;" cx="121.941" cy="466.876" r="1.48"/>
			<path style="fill:#CEF0FF;" d="M34.935,466.059c0,0.452-0.366,0.818-0.818,0.818c-0.452,0-0.818-0.366-0.818-0.818
				s0.366-0.818,0.818-0.818C34.569,465.241,34.935,465.607,34.935,466.059z"/>
		</g>
	</g>
</g>
</svg>
